<svg xmlns="http://www.w3.org/2000/svg" version="1.1" xmlns:xlink="http://www.w3.org/1999/xlink" xmlns:svgjs="http://svgjs.dev/svgjs" width="1000" height="694" viewBox="0 0 1000 694"><g transform="matrix(1,0,0,1,-0.7256834115847255,-1.794709569769168)"><svg viewBox="0 0 134 93" data-background-color="#ffffff" preserveAspectRatio="xMidYMid meet" height="694" width="1000" xmlns="http://www.w3.org/2000/svg" xmlns:xlink="http://www.w3.org/1999/xlink"><g id="tight-bounds" transform="matrix(1,0,0,1,0.09724165431066467,0.24061239042026727)"><svg viewBox="0 0 133.805516768537 92.51888618308327" height="92.51888618308327" width="133.805516768537"><g><svg viewBox="0 0 133.805516768537 92.51888618308327" height="92.51888618308327" width="133.805516768537"><g><svg viewBox="0 0 133.805516768537 92.51888618308327" height="92.51888618308327" width="133.805516768537"><g id="textblocktransform"><svg viewBox="0 0 133.805516768537 92.51888618308327" height="92.51888618308327" width="133.805516768537" id="textblock"><g><svg viewBox="0 0 133.805516768537 58.778906250000006" height="58.778906250000006" width="133.805516768537"><g><svg><g></g><g></g></svg></g><g><svg><g><svg></svg></g><g></g></svg></g><g id="text-0"><svg viewBox="0 0 133.805516768537 58.778906250000006" height="58.778906250000006" width="133.805516768537"><g transform="matrix(1,0,0,1,0,3.552713678800501e-15)"><svg width="61.1490234375" viewBox="1.2000000476837158 -35.599998474121094 37.790000915527344 36.32999801635742" height="58.77890625" data-palette-color="#050505"><g class="wordmark-text-0" data-fill-palette-color="primary"><path d="M25.85-35.6L38.99-35.6 36.74 0.24 25.61 0.73 25.71-18.16 20.68-2.93 16.38-2.93 12.52-16.55 12.48-0.73 1.2-0.39 1.68-34.13 14.23-34.62 19.21-18.46 25.85-35.6Z" fill="#050505" data-fill-palette-color="primary"></path></g></svg></g><g><svg xmlns="http://www.w3.org/2000/svg" xmlns:xlink="http://www.w3.org/1999/xlink" version="1.0" x="75.0263671875" y="0" viewBox="4.667734146118164 4.6859588623046875 90.3050308227539 90.30465698242188" enable-background="new 0 0 100 100" xml:space="preserve" height="58.778906250000006" width="58.779149581037" class="icon-s-0" data-fill-palette-color="accent" id="s-0"><path d="M17.504 35.743c-1.334 8.611 0.522 17.134 5.093 23.382 3.514 4.801 8.413 7.905 13.796 8.739 5.677 0.88 11.253-0.429 15.703-3.685 1.248-0.912 2.36-1.946 3.326-3.076-2.222 0.978-4.814 1.267-7.626 0.831-11.717-1.816-19.673-13.464-17.735-25.964 0.934-6.03 4.384-11.497 9.713-15.397 6.768-4.952 15.953-6.97 25.201-5.537 7.474 1.158 17.67 5.964 25.56 15.213 0 0-22.835-39.421-56.115-20.356C23.689 16.04 18.653 28.323 17.504 35.743z" fill="#d2d6dc" data-fill-palette-color="accent"></path><path d="M82.544 65.256c1.659-8.555 0.125-17.141-4.207-23.557-3.331-4.931-8.109-8.217-13.457-9.253-5.639-1.094-11.261 0.004-15.83 3.091-1.282 0.863-2.431 1.854-3.44 2.947 2.257-0.894 4.859-1.084 7.652-0.543 11.64 2.257 19.151 14.196 16.744 26.616-1.161 5.989-4.815 11.324-10.288 15.019-6.949 4.692-16.205 6.364-25.393 4.582C26.902 82.719 16.894 77.532 9.358 67.992c0 0 21.331 40.255 55.307 22.457C75.621 84.712 81.115 72.628 82.544 65.256z" fill="#d2d6dc" data-fill-palette-color="accent"></path><path d="M35.726 82.88c8.611 1.334 17.133-0.522 23.381-5.094 4.801-3.514 7.905-8.413 8.74-13.796 0.879-5.676-0.429-11.253-3.686-15.702-0.912-1.248-1.946-2.36-3.076-3.327 0.979 2.222 1.267 4.815 0.831 7.626-1.816 11.717-13.463 19.673-25.965 17.736-6.029-0.934-11.497-4.385-15.395-9.713-4.952-6.768-6.971-15.954-5.538-25.202 1.158-7.474 5.964-17.67 15.213-25.559 0 0-39.421 22.835-20.356 56.115C16.022 76.695 28.305 81.73 35.726 82.88z" fill="#d2d6dc" data-fill-palette-color="accent"></path><path d="M90.432 35.718c-5.738-10.955-17.822-16.45-25.194-17.879-8.554-1.659-17.141-0.125-23.557 4.208-4.931 3.331-8.217 8.108-9.254 13.456-1.094 5.64 0.004 11.261 3.092 15.83 0.863 1.282 1.854 2.431 2.946 3.441-0.894-2.257-1.084-4.859-0.542-7.652 2.257-11.64 14.196-19.151 26.615-16.744 5.99 1.161 11.324 4.816 15.019 10.289 4.693 6.949 6.363 16.204 4.583 25.392-1.44 7.423-6.626 17.431-16.167 24.966C67.973 91.025 108.228 69.694 90.432 35.718z" fill="#d2d6dc" data-fill-palette-color="accent"></path></svg></g></svg></g></svg></g><g transform="matrix(1,0,0,1,25.556853702790562,72.655195321875)"><svg viewBox="0 0 82.69180936295587 19.86369086120826" height="19.86369086120826" width="82.69180936295587"><g transform="matrix(1,0,0,1,0,0)"><svg width="82.69180936295587" viewBox="0.9000000357627869 -41.5 224.77999877929688 54" height="19.86369086120826" data-palette-color="#2d373a"><path d="M10.5-26.8L10.5-22.9 10.7-22.9Q12.3-24.8 14.15-25.9 16-27 18.45-27L18.45-27Q21.3-27 23.68-25.98 26.05-24.95 27.8-23.1 29.55-21.25 30.53-18.73 31.5-16.2 31.5-13.2L31.5-13.2Q31.5-10.15 30.5-7.63 29.5-5.1 27.75-3.3 26-1.5 23.6-0.5 21.2 0.5 18.4 0.5L18.4 0.5Q16.1 0.5 14.23-0.28 12.35-1.05 10.7-2.8L10.7-2.8 10.7 4.5Q10.7 6.5 10.9 7.7 11.1 8.9 11.7 9.55 12.3 10.2 13.43 10.45 14.55 10.7 16.4 10.75L16.4 10.75 16.4 12.5 1 12.5 1 10.75Q2.5 10.7 3.43 10.45 4.35 10.2 4.88 9.55 5.4 8.9 5.6 7.78 5.8 6.65 5.8 4.85L5.8 4.85 5.8-13.85Q5.8-16.75 5.73-18.6 5.65-20.45 5.45-21.15L5.45-21.15Q5.2-22.35 4.3-22.78 3.4-23.2 0.9-23.2L0.9-23.2 0.9-24.9 10.5-26.8ZM12-21.45L12-21.45Q11.35-20.45 11.03-19.07 10.7-17.7 10.7-15.5L10.7-15.5 10.7-11.6Q10.7-10.25 10.78-9.28 10.85-8.3 11-7.6 11.15-6.9 11.4-6.35 11.65-5.8 12.05-5.3L12.05-5.3Q13.2-3.7 14.8-2.83 16.4-1.95 18.15-1.95L18.15-1.95Q21.6-1.95 23.73-4.85 25.85-7.75 25.85-13L25.85-13Q25.85-15.6 25.28-17.73 24.7-19.85 23.65-21.38 22.6-22.9 21.13-23.75 19.65-24.6 17.85-24.6L17.85-24.6Q16.05-24.6 14.53-23.78 13-22.95 12-21.45ZM50.2-27L50.2-27Q53.05-27 55.6-25.98 58.15-24.95 60.07-23.15 62-21.35 63.12-18.88 64.25-16.4 64.25-13.45L64.25-13.45Q64.25-10.4 63.12-7.85 62-5.3 60.07-3.45 58.15-1.6 55.6-0.55 53.05 0.5 50.2 0.5L50.2 0.5Q47.4 0.5 44.87-0.53 42.35-1.55 40.45-3.4 38.55-5.25 37.45-7.83 36.35-10.4 36.35-13.45L36.35-13.45Q36.35-16.4 37.45-18.9 38.55-21.4 40.45-23.2 42.35-25 44.87-26 47.4-27 50.2-27ZM50.2-24.6L50.2-24.6Q48.35-24.6 46.82-23.8 45.3-23 44.22-21.53 43.15-20.05 42.57-17.98 42-15.9 42-13.4L42-13.4Q42-10.8 42.57-8.7 43.15-6.6 44.22-5.13 45.3-3.65 46.8-2.85 48.3-2.05 50.2-2.05L50.2-2.05Q52.1-2.05 53.65-2.85 55.2-3.65 56.3-5.15 57.4-6.65 58-8.75 58.6-10.85 58.6-13.4L58.6-13.4Q58.6-15.9 58-17.95 57.4-20 56.3-21.48 55.2-22.95 53.65-23.78 52.1-24.6 50.2-24.6ZM77.75-9.65L77.75-7.95Q77.75-5.9 77.85-4.7 77.95-3.5 78.37-2.88 78.8-2.25 79.6-2.05 80.4-1.85 81.85-1.75L81.85-1.75 81.85 0 68.55 0 68.55-1.75Q70-1.8 70.85-2.02 71.7-2.25 72.15-2.85 72.6-3.45 72.72-4.58 72.85-5.7 72.85-7.6L72.85-7.6 72.85-13.45Q72.85-16.85 72.77-18.75 72.7-20.65 72.27-21.55 71.85-22.45 70.95-22.63 70.05-22.8 68.45-22.8L68.45-22.8 68.45-24.55 77.2-26.45 77.9-20.25 78.1-20.25Q78.75-21.75 79.72-23 80.7-24.25 81.85-25.13 83-26 84.25-26.5 85.5-27 86.8-27L86.8-27Q88.4-27 89.32-26.23 90.25-25.45 90.25-24.15L90.25-24.15Q90.25-22.95 89.5-22.28 88.75-21.6 87.35-21.6L87.35-21.6Q86.55-21.6 86-21.8 85.45-22 85.02-22.23 84.6-22.45 84.22-22.65 83.85-22.85 83.4-22.85L83.4-22.85Q82.05-22.85 80.7-21.13 79.35-19.4 78.6-16.75L78.6-16.75Q78.2-15.3 77.97-13.48 77.75-11.65 77.75-9.65L77.75-9.65ZM95.49-23.35L92.49-23.35 92.49-25.2Q95.14-26.75 96.64-28.3 98.14-29.85 98.94-32L98.94-32 100.39-32 100.39-25.7 107.09-25.7 107.09-23.35 100.39-23.35 100.39-8.15Q100.39-6.4 100.57-5.2 100.74-4 101.14-3.28 101.54-2.55 102.19-2.25 102.84-1.95 103.84-1.95L103.84-1.95Q105.09-1.95 105.97-2.48 106.84-3 107.69-4.25L107.69-4.25 108.94-3.3Q108.24-1.45 106.52-0.48 104.79 0.5 102.24 0.5L102.24 0.5Q98.94 0.5 97.22-1.07 95.49-2.65 95.49-5.6L95.49-5.6 95.49-23.35ZM110.49-23.35L110.49-25.7 116.14-25.7 116.14-29.3Q116.14-35.05 119.17-38.27 122.19-41.5 127.79-41.5L127.79-41.5Q130.89-41.5 132.84-40.55 134.79-39.6 134.79-38.1L134.79-38.1Q134.79-37.1 134.17-36.43 133.54-35.75 132.59-35.75L132.59-35.75Q131.99-35.75 131.32-36.13 130.64-36.5 129.54-37.4L129.54-37.4Q128.29-38.45 127.59-38.78 126.89-39.1 125.94-39.1L125.94-39.1Q122.94-39.1 121.64-36.05L121.64-36.05Q121.19-35.05 121.02-33.6 120.84-32.15 120.84-29.6L120.84-29.6 120.84-25.7 128.89-25.7 128.89-23.35 120.84-23.35 120.84-8.05Q120.84-6.2 121.07-5 121.29-3.8 121.87-3.08 122.44-2.35 123.44-2.08 124.44-1.8 126.04-1.75L126.04-1.75 126.04 0 111.84 0 111.84-1.75Q113.24-1.8 114.09-2.02 114.94-2.25 115.39-2.88 115.84-3.5 115.99-4.63 116.14-5.75 116.14-7.65L116.14-7.65 116.14-23.35 110.49-23.35ZM145.64-27L145.64-27Q148.49-27 151.04-25.98 153.59-24.95 155.51-23.15 157.44-21.35 158.56-18.88 159.69-16.4 159.69-13.45L159.69-13.45Q159.69-10.4 158.56-7.85 157.44-5.3 155.51-3.45 153.59-1.6 151.04-0.55 148.49 0.5 145.64 0.5L145.64 0.5Q142.84 0.5 140.31-0.53 137.79-1.55 135.89-3.4 133.99-5.25 132.89-7.83 131.79-10.4 131.79-13.45L131.79-13.45Q131.79-16.4 132.89-18.9 133.99-21.4 135.89-23.2 137.79-25 140.31-26 142.84-27 145.64-27ZM145.64-24.6L145.64-24.6Q143.79-24.6 142.26-23.8 140.74-23 139.66-21.53 138.59-20.05 138.01-17.98 137.44-15.9 137.44-13.4L137.44-13.4Q137.44-10.8 138.01-8.7 138.59-6.6 139.66-5.13 140.74-3.65 142.24-2.85 143.74-2.05 145.64-2.05L145.64-2.05Q147.54-2.05 149.09-2.85 150.64-3.65 151.74-5.15 152.84-6.65 153.44-8.75 154.04-10.85 154.04-13.4L154.04-13.4Q154.04-15.9 153.44-17.95 152.84-20 151.74-21.48 150.64-22.95 149.09-23.78 147.54-24.6 145.64-24.6ZM172.54-41.5L172.54-7.8Q172.54-5.9 172.69-4.75 172.84-3.6 173.31-2.95 173.79-2.3 174.66-2.05 175.54-1.8 176.99-1.75L176.99-1.75 176.99 0 163.19 0 163.19-1.75Q164.69-1.8 165.59-2.08 166.49-2.35 167.01-2.95 167.54-3.55 167.71-4.63 167.89-5.7 167.89-7.45L167.89-7.45 167.89-29Q167.89-31.7 167.81-33.52 167.74-35.35 167.59-36L167.59-36Q167.34-37.15 166.41-37.55 165.49-37.95 163.09-37.95L163.09-37.95 163.09-39.65 172.54-41.5ZM189.73-27L189.73-7.95Q189.73-6 189.91-4.83 190.08-3.65 190.58-2.98 191.08-2.3 191.98-2.05 192.88-1.8 194.38-1.75L194.38-1.75 194.38 0 180.03 0 180.03-1.75Q181.53-1.8 182.48-2.08 183.43-2.35 183.96-2.98 184.48-3.6 184.66-4.73 184.83-5.85 184.83-7.6L184.83-7.6 184.83-14Q184.83-16.9 184.76-18.78 184.68-20.65 184.48-21.35L184.48-21.35Q184.23-22.5 183.33-22.93 182.43-23.35 179.93-23.35L179.93-23.35 179.93-25.1 189.73-27ZM183.98-37.15L183.98-37.15Q183.98-38.45 184.88-39.35 185.78-40.25 187.08-40.25L187.08-40.25Q188.38-40.25 189.28-39.35 190.18-38.45 190.18-37.15L190.18-37.15Q190.18-35.85 189.28-34.95 188.38-34.05 187.08-34.05L187.08-34.05Q185.78-34.05 184.88-34.95 183.98-35.85 183.98-37.15ZM211.63-27L211.63-27Q214.48-27 217.03-25.98 219.58-24.95 221.51-23.15 223.43-21.35 224.56-18.88 225.68-16.4 225.68-13.45L225.68-13.45Q225.68-10.4 224.56-7.85 223.43-5.3 221.51-3.45 219.58-1.6 217.03-0.55 214.48 0.5 211.63 0.5L211.63 0.5Q208.83 0.5 206.31-0.53 203.78-1.55 201.88-3.4 199.98-5.25 198.88-7.83 197.78-10.4 197.78-13.45L197.78-13.45Q197.78-16.4 198.88-18.9 199.98-21.4 201.88-23.2 203.78-25 206.31-26 208.83-27 211.63-27ZM211.63-24.6L211.63-24.6Q209.78-24.6 208.26-23.8 206.73-23 205.66-21.53 204.58-20.05 204.01-17.98 203.43-15.9 203.43-13.4L203.43-13.4Q203.43-10.8 204.01-8.7 204.58-6.6 205.66-5.13 206.73-3.65 208.23-2.85 209.73-2.05 211.63-2.05L211.63-2.05Q213.53-2.05 215.08-2.85 216.63-3.65 217.73-5.15 218.83-6.65 219.43-8.75 220.03-10.85 220.03-13.4L220.03-13.4Q220.03-15.9 219.43-17.95 218.83-20 217.73-21.48 216.63-22.95 215.08-23.78 213.53-24.6 211.63-24.6Z" opacity="1" transform="matrix(1,0,0,1,0,0)" fill="#2d373a" class="slogan-text-1" data-fill-palette-color="secondary" id="text-1"></path></svg></g></svg></g></svg></g></svg></g></svg></g><defs></defs></svg><rect width="133.805516768537" height="92.51888618308327" fill="none" stroke="none" visibility="hidden"></rect></g></svg></g></svg>